<svg width="22" height="23" viewBox="0 0 22 23" fill="none" xmlns="http://www.w3.org/2000/svg">
<path d="M2.75 10.875C2.75 7.10376 2.75 5.21815 3.92157 4.04657C5.09315 2.875 6.97876 2.875 10.75 2.875H11.25C15.0212 2.875 16.9069 2.875 18.0784 4.04657C19.25 5.21815 19.25 7.10376 19.25 10.875V12.125C19.25 15.8962 19.25 17.7819 18.0784 18.9534C16.9069 20.125 15.0212 20.125 11.25 20.125H10.75C6.97876 20.125 5.09315 20.125 3.92157 18.9534C2.75 17.7819 2.75 15.8962 2.75 12.125V10.875Z" stroke="black" stroke-width="2"/>
<path d="M11 7.66675L11 15.3334" stroke="black" stroke-width="2" stroke-linecap="square" stroke-linejoin="round"/>
<path d="M14.6666 11.5L7.33329 11.5" stroke="black" stroke-width="2" stroke-linecap="square" stroke-linejoin="round"/>
</svg>
