<svg width="33" height="31" viewBox="0 0 33 31" fill="none" xmlns="http://www.w3.org/2000/svg">
<path d="M4.17947 12.654C4.17947 8.88282 4.17947 6.9972 5.35105 5.82563C6.52262 4.65405 8.40824 4.65405 12.1795 4.65405H20.7331C24.5043 4.65405 26.3899 4.65405 27.5615 5.82563C28.733 6.9972 28.733 8.88282 28.733 12.6541V19.2363C28.733 23.0075 28.733 24.8931 27.5615 26.0647C26.3899 27.2362 24.5043 27.2362 20.733 27.2362H12.1795C8.40824 27.2362 6.52262 27.2362 5.35105 26.0647C4.17947 24.8931 4.17947 23.0075 4.17947 19.2362V12.654Z" stroke="white" stroke-width="2"/>
<path d="M16.4563 10.9269L16.4563 20.9635" stroke="white" stroke-width="2" stroke-linecap="square" stroke-linejoin="round"/>
<path d="M21.9126 15.9452L10.9999 15.9452" stroke="white" stroke-width="2" stroke-linecap="square" stroke-linejoin="round"/>
</svg>
