<svg width="33" height="35" viewBox="0 0 33 35" fill="none" xmlns="http://www.w3.org/2000/svg">
<path d="M4.125 12.375C4.125 8.60376 4.125 6.71815 5.29657 5.54657C6.46815 4.375 8.35376 4.375 12.125 4.375H20.875C24.6462 4.375 26.5319 4.375 27.7034 5.54657C28.875 6.71815 28.875 8.60376 28.875 12.375V22.625C28.875 26.3962 28.875 28.2819 27.7034 29.4534C26.5319 30.625 24.6462 30.625 20.875 30.625H12.125C8.35376 30.625 6.46815 30.625 5.29657 29.4534C4.125 28.2819 4.125 26.3962 4.125 22.625V12.375Z" stroke="white" stroke-width="2"/>
<path d="M16.5 11.6667L16.5 23.3334" stroke="white" stroke-width="2" stroke-linecap="square" stroke-linejoin="round"/>
<path d="M22 17.5L11 17.5" stroke="white" stroke-width="2" stroke-linecap="square" stroke-linejoin="round"/>
</svg>
