<svg width="33" height="31" viewBox="0 0 33 31" fill="none" xmlns="http://www.w3.org/2000/svg">
<path d="M4.17957 12.654C4.17957 8.88282 4.17957 6.9972 5.35114 5.82563C6.52271 4.65405 8.40833 4.65405 12.1796 4.65405H20.7331C24.5044 4.65405 26.39 4.65405 27.5616 5.82563C28.7331 6.9972 28.7331 8.88282 28.7331 12.6541V19.2363C28.7331 23.0075 28.7331 24.8931 27.5616 26.0647C26.39 27.2362 24.5044 27.2362 20.7331 27.2362H12.1796C8.40833 27.2362 6.52271 27.2362 5.35114 26.0647C4.17957 24.8931 4.17957 23.0075 4.17957 19.2362V12.654Z" stroke="white" stroke-width="2"/>
<path d="M16.4563 10.927L16.4563 20.9635" stroke="white" stroke-width="2" stroke-linecap="square" stroke-linejoin="round"/>
<path d="M21.9127 15.9451L11 15.9451" stroke="white" stroke-width="2" stroke-linecap="square" stroke-linejoin="round"/>
</svg>
