<svg width="15" height="16" viewBox="0 0 15 16" fill="none" xmlns="http://www.w3.org/2000/svg">
<path fill-rule="evenodd" clip-rule="evenodd" d="M7.48442 15.8088C8.97413 15.0475 14.1813 12.0269 14.1813 7C14.1813 3.13401 11.0067 0 7.09067 0C3.1746 0 0 3.13401 0 7C0 12.0269 5.20722 15.0475 6.69693 15.8088C6.94761 15.9369 7.23373 15.9369 7.48442 15.8088ZM7.09067 10C8.76899 10 10.1295 8.65685 10.1295 7C10.1295 5.34315 8.76899 4 7.09067 4C5.41236 4 4.05181 5.34315 4.05181 7C4.05181 8.65685 5.41236 10 7.09067 10Z" fill="white"/>
</svg>
