<svg width="20" height="11" viewBox="0 0 20 11" fill="none" xmlns="http://www.w3.org/2000/svg">
<path fill-rule="evenodd" clip-rule="evenodd" d="M10.9001 10.5H2.68614C1.73923 10.5 1.16537 9.45462 1.67374 8.65575L6.48774 1.09091C6.95928 0.349907 8.04098 0.349905 8.51252 1.0909L11.746 6.17208L13.5401 3.78C14.0201 3.14 14.9801 3.14 15.4601 3.78L19.0601 8.58C19.6534 9.37108 19.0889 10.5 18.1001 10.5H12.3141H10.9001Z" fill="#7E869E" fill-opacity="0.25"/>
<path d="M1.67374 8.65575L2.09558 8.92419L1.67374 8.65575ZM6.48774 1.09091L6.90957 1.35934V1.35934L6.48774 1.09091ZM8.51252 1.0909L8.93436 0.822467V0.822467L8.51252 1.0909ZM11.746 6.17208L11.3242 6.44052C11.4123 6.579 11.5628 6.66541 11.7268 6.67171C11.8908 6.67801 12.0475 6.6034 12.146 6.47208L11.746 6.17208ZM13.5401 3.78L13.1401 3.48V3.48L13.5401 3.78ZM15.4601 3.78L15.8601 3.48L15.4601 3.78ZM19.0601 8.58L19.4601 8.28V8.28L19.0601 8.58ZM2.68614 11H10.9001V10H2.68614V11ZM1.25191 8.38731C0.53172 9.51904 1.34469 11 2.68614 11V10C2.13378 10 1.79903 9.39019 2.09558 8.92419L1.25191 8.38731ZM6.06591 0.822469L1.25191 8.38731L2.09558 8.92419L6.90957 1.35934L6.06591 0.822469ZM8.93436 0.822467C8.26633 -0.227283 6.73393 -0.227279 6.06591 0.822469L6.90957 1.35934C7.18464 0.927094 7.81563 0.927094 8.09069 1.35934L8.93436 0.822467ZM12.1678 5.90364L8.93436 0.822467L8.09069 1.35934L11.3242 6.44052L12.1678 5.90364ZM13.1401 3.48L11.346 5.87208L12.146 6.47208L13.9401 4.08L13.1401 3.48ZM15.8601 3.48C15.1801 2.57333 13.8201 2.57333 13.1401 3.48L13.9401 4.08C14.2201 3.70667 14.7801 3.70667 15.0601 4.08L15.8601 3.48ZM19.4601 8.28L15.8601 3.48L15.0601 4.08L18.6601 8.88L19.4601 8.28ZM18.1001 11C19.5009 11 20.3006 9.4007 19.4601 8.28L18.6601 8.88C19.0062 9.34147 18.6769 10 18.1001 10V11ZM12.3141 11H18.1001V10H12.3141V11ZM10.9001 11H12.3141V10H10.9001V11Z" fill="#222222"/>
</svg>
